<svg width="24" height="24" viewBox="0 0 24 24" fill="none" xmlns="http://www.w3.org/2000/svg">
<g clip-path="url(#clip0_28_38)">
<path d="M18.45 2C19.568 2 20.481 2.901 20.5 4.025V22L18.35 20.1L17.14 18.98L15.86 17.79L16.39 19.64H5.05C4.511 19.6387 3.99408 19.4258 3.61062 19.047C3.22716 18.6682 3.00787 18.1539 3 17.615V4.06C3 2.932 3.901 2.019 5.015 2H18.45ZM10.32 6.78L10.22 6.66H10.163C9.89 6.669 8.677 6.76 7.41 7.71L7.362 7.802C7.111 8.292 5.97 10.674 5.97 13.54L5.99 13.573C6.132 13.79 7.009 14.996 9.02 15.06L9.315 14.699L9.69 14.23C8.524 13.881 8.024 13.179 7.95 13.066L7.94 13.05L7.981 13.077C8.02767 13.1083 8.10733 13.156 8.22 13.22C8.23 13.23 8.24 13.24 8.26 13.25C8.29 13.27 8.32 13.28 8.35 13.3C8.6 13.44 8.85 13.55 9.08 13.64C9.49 13.8 9.98 13.96 10.55 14.07C11.279 14.206 12.13 14.257 13.058 14.095L13.14 14.08C13.61 14 14.09 13.86 14.59 13.65C14.94 13.52 15.33 13.33 15.74 13.06L15.724 13.085C15.628 13.225 15.104 13.918 13.93 14.25L14.095 14.457C14.348 14.771 14.59 15.06 14.59 15.06C16.8 14.99 17.65 13.54 17.65 13.54C17.65 10.32 16.21 7.71 16.21 7.71C14.972 6.781 13.785 6.673 13.477 6.661L13.4 6.66L13.26 6.82C14.768 7.281 15.56 7.923 15.72 8.063L15.75 8.09C14.2177 7.24478 12.4541 6.9152 10.72 7.15C10.66 7.15 10.61 7.16 10.55 7.17L10.494 7.175C10.114 7.214 9.297 7.354 8.28 7.8L8.135 7.868C7.953 7.954 7.821 8.021 7.75 8.058L7.69 8.09C7.69 8.09 8.503 7.316 10.266 6.796L10.32 6.78ZM9.94 10.39C10.51 10.39 10.97 10.89 10.96 11.5C10.96 12.11 10.51 12.61 9.94 12.61C9.38 12.61 8.92 12.11 8.92 11.5C8.92 10.89 9.37 10.39 9.94 10.39ZM13.59 10.39C14.16 10.39 14.61 10.89 14.61 11.5C14.61 12.11 14.16 12.61 13.59 12.61C13.03 12.61 12.57 12.11 12.57 11.5C12.57 10.89 13.02 10.39 13.59 10.39Z" fill="white"/>
</g>
<defs>
<clipPath id="clip0_28_38">
<rect width="18" height="20" fill="white" transform="translate(3 2)"/>
</clipPath>
</defs>
</svg>
